<?xml version="1.0" encoding="utf-8"?>
<!-- Generator: Adobe Illustrator 20.1.0, SVG Export Plug-In . SVG Version: 6.00 Build 0)  -->
<svg version="1.1"
	 id="svg2" inkscape:output_extension="org.inkscape.output.svg.inkscape" inkscape:version="0.47 r22583" sodipodi:docname="reddit.svg" sodipodi:version="0.32" xmlns:cc="http://creativecommons.org/ns#" xmlns:dc="http://purl.org/dc/elements/1.1/" xmlns:inkscape="http://www.inkscape.org/namespaces/inkscape" xmlns:rdf="http://www.w3.org/1999/02/22-rdf-syntax-ns#" xmlns:sodipodi="http://sodipodi.sourceforge.net/DTD/sodipodi-0.dtd" xmlns:svg="http://www.w3.org/2000/svg"
	 xmlns="http://www.w3.org/2000/svg" xmlns:xlink="http://www.w3.org/1999/xlink" x="0px" y="0px" viewBox="0 0 206.4 174.3"
	 style="enable-background:new 0 0 206.4 174.3;" xml:space="preserve">
<style type="text/css">
	.st0{fill:#FFFFFF;}
</style>
<defs>
	
	
		<inkscape:perspective  id="perspective2840" inkscape:persp3d-origin="128 : 85.333333 : 1" inkscape:vp_x="0 : 128 : 1" inkscape:vp_y="0 : 1000 : 0" inkscape:vp_z="256 : 128 : 1" sodipodi:type="inkscape:persp3d">
		</inkscape:perspective>
</defs>
<sodipodi:namedview  bordercolor="#666666" borderopacity="1.0" id="base" inkscape:current-layer="layer1" inkscape:cx="-42.891161" inkscape:cy="61.745667" inkscape:document-units="px" inkscape:pageopacity="0.0" inkscape:pageshadow="2" inkscape:window-height="545" inkscape:window-maximized="0" inkscape:window-width="895" inkscape:window-x="0" inkscape:window-y="0" inkscape:zoom="0.69999999" pagecolor="#ffffff" showgrid="false">
	</sodipodi:namedview>
<path id="path9946" sodipodi:cx="668.92859" sodipodi:cy="139.57143" sodipodi:rx="14.642858" sodipodi:ry="15" sodipodi:type="arc" class="st0" d="
	M80.5,97.9c0,6.9-5.5,12.5-12.2,12.5S56,104.8,56,97.9c0-6.9,5.5-12.5,12.2-12.5S80.5,91,80.5,97.9z"/>
<path id="path9946-2" sodipodi:cx="668.92859" sodipodi:cy="139.57143" sodipodi:rx="14.642858" sodipodi:ry="15" sodipodi:type="arc" class="st0" d="
	M144,96.9c0,6.9-5.5,12.5-12.2,12.5c-6.7,0-12.2-5.6-12.2-12.5c0-6.9,5.5-12.5,12.2-12.5C138.5,84.4,144,90,144,96.9z"/>
<path class="st0" d="M100.3,147.9c-10.7,0-22.5-3.4-35.7-12.7c-2.3-1.6-2.8-4.7-1.2-7c1.6-2.3,4.7-2.8,7-1.2
	c25.4,18,43.8,10.5,61.8,0.4c2.4-1.3,5.5-0.5,6.8,1.9c1.3,2.4,0.5,5.5-1.9,6.8C126.2,142.3,114.1,147.9,100.3,147.9z"/>
<path class="st0" d="M206.4,79c0-14.5-11.4-26.3-25.3-26.3c-7.5,0-14.3,3.4-18.9,8.8c-14.6-9.1-33.2-14.8-53.7-15.6
	c0.2-13.4,2.2-23.3,9.7-26.7l0.4-0.2l0.4-0.3c7.3-5.1,17.4-2.4,28.3,1.9c-0.1,0.9-0.2,1.9-0.2,2.9c0,13,10,23.6,22.2,23.6
	s22.2-10.6,22.2-23.6S181.5,0,169.3,0c-8,0-15,4.5-18.9,11.2c-12.9-5-25.8-8.3-36.8-0.9c-12.3,5.9-15,20.2-15.2,35.6
	c-20.4,0.9-39.1,6.7-53.6,15.8c-4.6-5.8-11.7-9.6-19.5-9.6C11.4,52.2,0,64,0,78.5c0,10.7,6.2,19.8,15,24c-0.4,2.5-0.6,5-0.6,7.6
	c0,35.4,40.1,64.2,89.3,64.2s89.3-28.8,89.3-64.2c0-2.6-0.2-5.1-0.6-7.6C200.7,98.2,206.4,89.3,206.4,79z M169.3,8
	c7.8,0,14.2,7,14.2,15.6s-6.4,15.6-14.2,15.6s-14.2-7-14.2-15.6S161.4,8,169.3,8z M9.2,78.5c0-9.4,7.2-17,16.1-17
	c4.8,0,9,2.2,12,5.7C28,74.5,21.1,83.5,17.4,93.3C12.5,90.4,9.2,84.9,9.2,78.5z M103.7,166.6c-45,0-81.6-25.3-81.6-56.5
	c0-31.2,36.6-56.5,81.6-56.5s81.6,25.3,81.6,56.5C185.3,141.2,148.7,166.6,103.7,166.6z M189.9,93.2c-3.8-9.9-10.8-18.9-20.1-26.3
	c2.9-3.1,6.9-5,11.3-5c8.9,0,16.1,7.6,16.1,17C197.1,84.9,194.2,90.2,189.9,93.2z"/>
</svg>
