<?xml version="1.0" encoding="utf-8"?>
<!-- Svg Vector Icons : http://www.onlinewebfonts.com/icon -->
<!DOCTYPE svg PUBLIC "-//W3C//DTD SVG 1.1//EN" "http://www.w3.org/Graphics/SVG/1.1/DTD/svg11.dtd">
<svg version="1.1" xmlns="http://www.w3.org/2000/svg" xmlns:xlink="http://www.w3.org/1999/xlink" x="0px" y="0px" viewBox="0 0 1000 1000" enable-background="new 0 0 1000 1000" xml:space="preserve">
<metadata> Svg Vector Icons : http://www.onlinewebfonts.com/icon </metadata>
<g><g><g><path d="M556.4,883.5h11h92.4c0.2-1.2,0.2-2.4,0.2-3.6c0-22.7-23.7-41.1-52.8-41.1c-6.8,0-13.3,1-19.5,3C578.5,858.5,567.9,872.5,556.4,883.5z"/><path d="M618.4,563.3l-1.9-11.9l-11.5,3.6c-67.3,21.1-144.6,21.2-212.2,0.1l-11.5-3.6l-1.9,11.9c-4.2,26.8-6.4,53.7-6.4,79.9c0,116.2,38,218.7,92.5,249.2l2.4,1.3h61.9l2.4-1.3c54.5-30.6,92.5-133,92.5-249.2C624.6,616.5,622.5,589.6,618.4,563.3z M524.2,873h-50.8c-46.3-28.4-79.6-124.2-79.6-229.7c0-21.3,1.5-43.1,4.4-64.9c64.6,17.8,136.8,17.8,201.2,0c2.8,21.4,4.3,43.2,4.3,64.9C603.8,748.9,570.4,844.6,524.2,873z"/><path d="M391,838.8c-29.1,0-52.8,18.4-52.8,41.1c0,1.1,0.1,2.3,0.2,3.6h94.9h7.8c-11.6-10.9-22.1-25.1-31.4-41.8C403.8,839.8,397.5,838.8,391,838.8z"/><path d="M672.4,671.6c0-37.2-17.4-71.1-43.7-88c2.2,19.5,3.4,39.4,3.4,59.7c0,43.7-5.4,85.4-14.9,122.3C649.8,752.4,672.4,715.1,672.4,671.6z"/><path d="M697,185.2c18.9,0,34.3-15.4,34.3-34.4c0-18.9-15.4-34.4-34.3-34.4c-19,0-34.4,15.4-34.4,34.4C662.7,169.8,678.1,185.2,697,185.2z"/><path d="M229.5,334.7c0,14.7,7.1,28.2,18.6,36.8c9.6-27.4,28.9-52.2,55.7-72.8c-8.1-6.3-18-10-28.3-10C250.1,288.7,229.5,309.3,229.5,334.7z"/><path d="M368.9,584.2c-26.1,16.9-42.8,50.1-42.8,87.4c0,43.2,22.3,79.9,54.2,93.5c-9.4-36.8-14.7-78.2-14.7-121.7C365.6,623.3,366.7,603.4,368.9,584.2z"/><path d="M724.5,288.7c-11,0-21.3,4-29.5,10.9c26.6,20.7,45.7,45.8,55,73.3c12.6-8.4,20.5-22.5,20.5-38.1C770.5,309.3,749.9,288.7,724.5,288.7z"/><path d="M407.8,478.5c-3.5,3.5-3.5,9.1,0,12.6c19.2,19.2,49.2,28.5,91.9,28.5c0.1,0,0.2-0.1,0.3-0.1c0.1,0,0.2,0.1,0.3,0.1c42.7,0,72.7-9.3,91.9-28.5c3.5-3.5,3.5-9.1,0-12.6c-3.5-3.5-9.2-3.5-12.7,0c-15.6,15.6-41.5,23.2-79.3,23.2c-0.1,0-0.2,0.1-0.3,0.1c-0.1,0-0.2-0.1-0.3-0.1c-37.7,0-63.6-7.6-79.3-23.2C416.9,475,411.3,475,407.8,478.5z"/><path d="M412.5,416.5c21,0,38-17,38-38c0-21-17.1-38-38-38c-21,0-38,17.1-38,38C374.5,399.4,391.5,416.5,412.5,416.5z"/><path d="M587.7,340.5c-21,0-38,17.1-38,38c0,20.9,17,38,38,38c20.9,0,38-17,38-38C625.7,357.5,608.6,340.5,587.7,340.5z"/><path d="M937.9,10H62.1C33.3,10,10,33.3,10,62.1v875.7c0,28.8,23.3,52.1,52.1,52.1h875.7c28.8,0,52.1-23.3,52.1-52.1V62.1C990,33.3,966.7,10,937.9,10z M754.7,390.8c1.1,6.4,1.8,12.8,1.8,19.3c0,63.9-53,119.6-131.1,149c0.2,1,0.3,1.9,0.4,2.9c38.7,16.9,64.5,60,64.5,109.6c0,56.1-33,103.5-78.9,114.5c-4,12.6-8.4,24.5-13.4,35.5c3.1-0.3,6.2-0.7,9.3-0.7c39,0,70.7,26.5,70.7,59c0,4.8-0.8,9.8-2.6,15.2c-1.2,3.7-4.6,6.2-8.5,6.2h-99.5h-19.7h-16.2l-0.1,0.1h-65.1l-0.1-0.1h-15.5h-17.2H331.5c-3.9,0-7.3-2.5-8.5-6.2c-1.8-5.4-2.6-10.4-2.6-15.3c0-32.5,31.7-59,70.7-59c2.9,0,5.8,0.4,8.6,0.7c-5-11-9.4-22.9-13.4-35.4c-45.1-11.2-78-58.5-78-114.5c0-49.1,25.4-92,63.6-109.2c0.2-1.1,0.3-2.2,0.5-3.3c-78.2-29.4-131.1-85.1-131.1-149c0-6.9,0.8-13.8,2-20.5c-19.4-11.4-31.6-32.2-31.6-55c0-35.3,28.6-63.9,63.8-63.9c16.1,0,31.4,6.4,43.2,17.2c45.5-29.6,107.3-48.1,175.5-48.9l39.8-125.7c1.4-4.4,6.1-7.1,10.6-6l104,24.5c7.6-19.4,26.4-33.3,48.6-33.3c28.8,0,52.2,23.5,52.2,52.2c0,28.8-23.4,52.2-52.2,52.2c-28.8,0-52.2-23.4-52.2-52.2c0-0.4,0.1-0.9,0.1-1.4l-96.5-22.8l-35.7,112.7c65.3,2.3,124.2,20.7,167.8,49.5c11.8-11.4,27.3-18.1,44-18.1c35.2,0,63.8,28.6,63.8,63.9C788.4,358.5,775.3,379.8,754.7,390.8z"/></g></g><g></g><g></g><g></g><g></g><g></g><g></g><g></g><g></g><g></g><g></g><g></g><g></g><g></g><g></g><g></g></g>
</svg>